# xmcd CD database file
#
# Track frame offsets:
#	150
#	18819
#	35376
#	54953
#	72870
#	89655
#	103024
#	121614
#	139455
#	157836
#
# Disc length: 2365 seconds
#
# Revision: 4
# Processed by: cddbd v1.5.2PL0 Copyright (c) Steve Scherf et al.
# Submitted via: CDex 1.70beta2
#
DISCID=78093b0a
DTITLE=Robert Cray - Strong Persuader
DYEAR=1986
DGENRE=Rock
TTITLE0=Smoking Gun ( 1986 ) - Robert Cray
TTITLE1=I Guess I Showed Her ( 1986 ) - Robert Cray
TTITLE2=Right Next Door ( Because of Me 1986 ) - Robert Cray
TTITLE3=Nothin' But a Woman ( 1986 ) - Robert Cray
TTITLE4=Still Around ( 1986 ) - Robert Cray
TTITLE5=More Than I Can Stand ( 1986 ) - Robert Cray
TTITLE6=Foul Play ( 1986 ) - Robert Cray
TTITLE7=I Wonder ( 1986 ) - Robert Cray
TTITLE8=Fantasized ( 1986 ) - Robert Cray
TTITLE9=New Blood ( 1986 ) - Robert Cray
EXTD=YEAR: 1986
EXTT0=
EXTT1=
EXTT2=
EXTT3=
EXTT4=
EXTT5=
EXTT6=
EXTT7=
EXTT8=
EXTT9=
PLAYORDER=
